# xmcd
# 
# Track frame offsets:
#     183
#     14863
#     32050
#     50593
#     55753
#     72695
#     87540
#     108250
#     127685
#     141255
# 
# Disc length: 2079
# 
# Revision: 2
# Processed by: cddbd v1.5.2PL0 Copyright (c) Steve Scherf et al.
# Submitted via: fre:ac v1.0.31
# 
DISCID=91081d0a
DTITLE=Alain Bashung - Play blessures
DYEAR=0
DGENRE=
TTITLE0=C'est comment qu'on freine
TTITLE1=Scène de manager
TTITLE2=Volontaire
TTITLE3=Prise femelle
TTITLE4=Martine  boude
TTITLE5=Lavabo
TTITLE6=J'envisage
TTITLE7=J'croise aux Hébrides
TTITLE8=Junge Männer
TTITLE9=Trompé d'érection
EXTD=
EXTT0=
EXTT1=
EXTT2=
EXTT3=
EXTT4=
EXTT5=
EXTT6=
EXTT7=
EXTT8=
EXTT9=
PLAYORDER=
